<?xml version="1.0" encoding="utf-8"?>
<!-- Generator: Adobe Illustrator 25.1.0, SVG Export Plug-In . SVG Version: 6.00 Build 0)  -->
<svg version="1.1" id="Layer_2_1_" xmlns="http://www.w3.org/2000/svg" xmlns:xlink="http://www.w3.org/1999/xlink" x="0px" y="0px"
	 viewBox="0 0 20 20" style="enable-background:new 0 0 20 20;" xml:space="preserve">
<style type="text/css">
	.st0{fill:#42526E;}
</style>
<g>
	<g>
		<path class="st0" d="M18.65,0H1.351C0.606,0,0,0.607,0,1.352v17.3c0,0.745,0.606,1.351,1.351,1.351h17.298
			c0.745,0,1.351-0.606,1.351-1.351v-17.3C20.001,0.607,19.395,0,18.65,0z M18.315,1.686v16.63H1.686V1.686H18.315z"/>
	</g>
	<g>
		<g>
			<g>
				<g>
					<g>
						<path class="st0" d="M3.743,9.981c0,0,0.878-3.819,5.08-4.314c4.154-0.489,5.445-0.749,6.351-2.156
							c-0.805,2.566-1.763,3.97-7.147,4.464C4.505,8.3,3.743,9.981,3.743,9.981z"/>
					</g>
				</g>
				<path class="st0" d="M10.121,12.172c-0.907,0.489-2.391,0.185-3.886,0.258c-2.191,0.107-2.166,0.738-2.166,0.738
					S5.984,16.474,10.121,12.172z"/>
			</g>
		</g>
		<path class="st0" d="M12.821,9.293c0.413-0.594,0.716-1.323,0.85-2.064c-0.635,0.754-2.198,1.699-6.46,2.1
			c-3.67,0.345-3.473,2.836-3.473,2.836s0.203-0.948,4.195-0.839c0.946,0.026,2.123-0.073,2.836-0.297
			C10.986,10.076,11.814,9.349,12.821,9.293z"/>
	</g>
	<path class="st0" d="M15.429,13.845c-0.152,0-0.298,0.024-0.435,0.067l-0.675-1.216c0.194-0.246,0.312-0.556,0.312-0.893
		c0-0.796-0.647-1.443-1.443-1.443s-1.443,0.647-1.443,1.443c0,0.315,0.103,0.606,0.274,0.843l-0.754,1.235
		c-0.103-0.023-0.209-0.037-0.319-0.037c-0.796,0-1.443,0.647-1.443,1.443c0,0.796,0.647,1.443,1.443,1.443
		c0.619,0,1.147-0.393,1.351-0.942l1.785,0.009c0.207,0.544,0.732,0.933,1.348,0.933c0.796,0,1.443-0.647,1.443-1.443
		C16.872,14.492,16.225,13.845,15.429,13.845z M13.187,11.205c0.33,0,0.599,0.269,0.599,0.599s-0.269,0.599-0.599,0.599
		c-0.33,0-0.599-0.269-0.599-0.599S12.857,11.205,13.187,11.205z M10.945,15.887c-0.33,0-0.599-0.268-0.599-0.599
		c0-0.33,0.269-0.599,0.599-0.599s0.599,0.269,0.599,0.599C11.544,15.618,11.275,15.887,10.945,15.887z M11.93,14.236l0.679-1.111
		c0.177,0.078,0.373,0.122,0.579,0.122c0.184,0,0.359-0.036,0.521-0.099l0.652,1.174c-0.18,0.199-0.305,0.448-0.352,0.723
		l-1.644-0.008C12.309,14.723,12.153,14.445,11.93,14.236z M15.429,15.887c-0.33,0-0.599-0.268-0.599-0.599
		c0-0.33,0.269-0.599,0.599-0.599c0.33,0,0.599,0.269,0.599,0.599C16.028,15.618,15.76,15.887,15.429,15.887z"/>
</g>
</svg>
